HIERARCHY
ROOT Hips
{
	OFFSET 0.00000 0.00000 0.00000
	CHANNELS 6 Xposition Yposition Zposition Zrotation Yrotation Xrotation 
	JOINT LHipJoint
	{
		OFFSET 0 0 0
		CHANNELS 3 Zrotation Yrotation Xrotation
		JOINT LeftUpLeg
		{
			OFFSET 1.30186 -1.90722 0.65024
			CHANNELS 3 Zrotation Yrotation Xrotation
			JOINT LeftLeg
			{
				OFFSET 2.56413 -7.04489 0.00000
				CHANNELS 3 Zrotation Yrotation Xrotation
				JOINT LeftFoot
				{
					OFFSET 2.79321 -7.67428 0.00000
					CHANNELS 3 Zrotation Yrotation Xrotation
					JOINT LeftToeBase
					{
						OFFSET 0.15723 -0.43198 2.08537
						CHANNELS 3 Zrotation Yrotation Xrotation
						End Site
						{
							OFFSET 0.00000 -0.00000 1.07411
						}
					}
				}
			}
		}
	}
	JOINT RHipJoint
	{
		OFFSET 0 0 0
		CHANNELS 3 Zrotation Yrotation Xrotation
		JOINT RightUpLeg
		{
			OFFSET -1.28627 -1.90723 0.65024
			CHANNELS 3 Zrotation Yrotation Xrotation
			JOINT RightLeg
			{
				OFFSET -2.56567 -7.04913 0.00000
				CHANNELS 3 Zrotation Yrotation Xrotation
				JOINT RightFoot
				{
					OFFSET -2.75597 -7.57198 0.00000
					CHANNELS 3 Zrotation Yrotation Xrotation
					JOINT RightToeBase
					{
						OFFSET -0.17500 -0.48081 2.22901
						CHANNELS 3 Zrotation Yrotation Xrotation
						End Site
						{
							OFFSET -0.00000 -0.00000 1.14762
						}
					}
				}
			}
		}
	}
	JOINT LowerBack
	{
		OFFSET 0 0 0
		CHANNELS 3 Zrotation Yrotation Xrotation
		JOINT Spine
		{
			OFFSET -0.04522 2.07467 -0.16566
			CHANNELS 3 Zrotation Yrotation Xrotation
			JOINT Spine1
			{
				OFFSET -0.01178 2.08825 -0.05393
				CHANNELS 3 Zrotation Yrotation Xrotation
				JOINT Neck
				{
					OFFSET 0 0 0
					CHANNELS 3 Zrotation Yrotation Xrotation
					JOINT Neck1
					{
						OFFSET -0.05182 1.80489 0.16014
						CHANNELS 3 Zrotation Yrotation Xrotation
						JOINT Head
						{
							OFFSET 0.14739 1.78840 -0.33342
							CHANNELS 3 Zrotation Yrotation Xrotation
							End Site
							{
								OFFSET 0.04364 1.83899 -0.13460
							}
						}
					}
				}
				JOINT LeftShoulder
				{
					OFFSET 0 0 0
					CHANNELS 3 Zrotation Yrotation Xrotation
					JOINT LeftArm
					{
						OFFSET 3.01264 1.29090 -0.06579
						CHANNELS 3 Zrotation Yrotation Xrotation
						JOINT LeftForeArm
						{
							OFFSET 5.55680 -0.00000 0.00000
							CHANNELS 3 Zrotation Yrotation Xrotation
							JOINT LeftHand
							{
								OFFSET 3.63979 -0.00000 -0.00000
								CHANNELS 3 Zrotation Yrotation Xrotation
								JOINT LeftFingerBase
								{
									OFFSET 0 0 0
									CHANNELS 3 Zrotation Yrotation Xrotation
									JOINT LeftHandIndex1
									{
										OFFSET 0.56942 -0.00000 -0.00000
										CHANNELS 3 Zrotation Yrotation Xrotation
										End Site
										{
											OFFSET 0.45908 -0.00000 -0.00000
										}
									}
								}
								JOINT LThumb
								{
									OFFSET 0 0 0
									CHANNELS 3 Zrotation Yrotation Xrotation
									End Site
									{
										OFFSET 0.46609 -0.00000 0.46609
									}
								}
							}
						}
					}
				}
				JOINT RightShoulder
				{
					OFFSET 0 0 0
					CHANNELS 3 Zrotation Yrotation Xrotation
					JOINT RightArm
					{
						OFFSET -3.15796 1.37283 -0.36748
						CHANNELS 3 Zrotation Yrotation Xrotation
						JOINT RightForeArm
						{
							OFFSET -5.34339 -0.00000 0.00000
							CHANNELS 3 Zrotation Yrotation Xrotation
							JOINT RightHand
							{
								OFFSET -3.65101 -0.00000 -0.00000
								CHANNELS 3 Zrotation Yrotation Xrotation
								JOINT RightFingerBase
								{
									OFFSET 0 0 0
									CHANNELS 3 Zrotation Yrotation Xrotation
									JOINT RightHandIndex1
									{
										OFFSET -0.69425 -0.00000 -0.00000
										CHANNELS 3 Zrotation Yrotation Xrotation
										End Site
										{
											OFFSET -0.55972 -0.00000 -0.00000
										}
									}
								}
								JOINT RThumb
								{
									OFFSET 0 0 0
									CHANNELS 3 Zrotation Yrotation Xrotation
									End Site
									{
										OFFSET -0.56827 -0.00000 0.56827
									}
								}
							}
						}
					}
				}
			}
		}
	}
}
MOTION
Frames: 13
Frame Time: .0083333
11.7603 17.6684 -14.5330 24.2108 -47.8303 -17.1095 0.0000 0.0000 0.0000 -34.5616 13.5470 -10.8652 3.7784 11.8595 35.2369 -0.9347 -20.5703 20.4212 3.6382 11.6627 34.5490 0.0000 0.0000 0.0000 9.9730 20.3951 -26.5753 -3.2407 -11.0749 32.5328 0.3669 -10.6716 -3.4760 -1.5197 -7.7845 22.0613 -2.6641 -5.8876 8.8572 1.9815 -8.1200 5.2888 4.0999 -4.2184 1.2329 11.9064 12.3890 -1.0647 -20.8833 19.7578 17.8399 -7.0926 8.8165 9.1100 -0.0000 0.0000 0.0000 -70.3249 -11.7672 32.6443 36.0656 -45.5582 -15.5693 -0.0000 -0.0000 10.5350 1.1322 3.0415 0.0601 -7.1250 0.0000 -0.0000 -20.3511 32.4991 6.5958 -0.0000 0.0000 0.0000 61.6561 -20.5474 -20.1285 -15.1043 24.2912 -3.2687 0.0000 0.0000 1.6030 -17.0808 27.1411 -7.9793 7.1250 -0.0000 -0.0000 7.7718 -2.0013 7.5663
11.7277 17.6344 -14.4195 22.9679 -47.6348 -16.3121 0.0000 0.0000 0.0000 -33.3192 14.1578 -12.2474 4.3726 12.6404 38.0370 -0.3786 -18.9382 23.4543 3.8369 11.9402 35.5207 0.0000 0.0000 0.0000 10.5179 20.8032 -26.5779 -3.5588 -11.5489 34.1543 0.3340 -10.2750 -5.2578 -1.9932 -8.8520 25.3333 -1.6397 -5.8470 9.4451 2.5097 -7.9864 5.1163 4.1630 -4.1234 0.6562 12.0943 12.3514 -0.9690 -21.3265 19.7902 17.7406 -7.2833 8.8316 9.1398 0.0000 0.0000 0.0000 -71.7528 -10.8293 33.1432 36.3217 -45.7332 -15.7524 -0.0000 -0.0000 11.1900 -6.1960 4.0507 -0.4394 -7.1250 0.0000 -0.0000 -26.1474 33.0414 8.4388 0.0000 0.0000 0.0000 61.4020 -21.3984 -21.7152 -14.6425 23.6457 -3.0811 0.0000 0.0000 2.2446 -17.3664 26.8013 -8.0265 7.1250 -0.0000 -0.0000 7.5707 -2.2992 7.3259
11.6871 17.6065 -14.3023 20.9893 -47.9495 -14.8422 0.0000 0.0000 0.0000 -31.4205 14.9236 -14.0551 5.0643 13.4558 41.0996 0.3288 -16.7097 26.5146 3.7691 11.8467 35.1917 0.0000 0.0000 0.0000 11.9097 20.6374 -26.8910 -3.8200 -11.9170 35.4390 0.2520 -9.2286 -6.1502 -1.9876 -8.8403 25.2969 -0.0350 -5.7770 9.5964 3.1690 -7.7670 5.1908 3.9673 -3.9911 0.5139 12.2485 12.3974 -1.2615 -21.7782 19.9252 17.6086 -7.4281 8.8685 9.2519 -0.0000 0.0000 0.0000 -73.1214 -10.1720 33.1910 36.4396 -45.8131 -15.8369 -0.0000 -0.0000 11.5764 -6.0422 3.9913 -0.4221 -7.1250 0.0000 -0.0000 -26.0165 32.9971 8.4191 -0.0000 0.0000 0.0000 61.1707 -21.5189 -23.7100 -14.0663 22.8295 -2.8538 0.0000 0.0000 3.0900 -17.3968 26.0779 -7.8422 7.1250 -0.0000 -0.0000 7.4895 -3.0277 7.1456
11.6361 17.5879 -14.1735 18.8310 -48.3241 -13.2574 0.0000 0.0000 0.0000 -29.3559 15.7487 -15.7276 5.7466 14.1782 43.9559 1.0392 -14.3381 29.1863 3.3806 11.2871 33.2543 0.0000 0.0000 0.0000 13.4290 20.2381 -27.1061 -4.0123 -12.1768 36.3604 0.2146 -8.7491 -6.5125 -1.4947 -7.7230 21.8759 1.6191 -5.7550 9.4148 3.8793 -7.6373 5.4730 3.7506 -3.9111 0.7873 12.0095 12.3966 -1.5430 -22.1380 19.9135 17.0344 -7.4862 8.8414 9.1249 -0.0000 0.0000 0.0000 -74.5364 -9.5248 32.8470 36.6269 -45.9395 -15.9714 -0.0000 -0.0000 12.1906 -0.6765 3.7494 -0.0442 -7.1250 0.0000 -0.0000 -21.9033 33.0731 6.8385 -0.0000 0.0000 0.0000 60.7315 -21.0384 -26.0755 -13.4233 21.9043 -2.6091 0.0000 0.0000 3.9750 -16.9046 25.0696 -7.3378 7.1250 -0.0000 -0.0000 7.7064 -4.1267 7.1985
11.5921 17.5827 -14.0474 17.4875 -48.3154 -12.4845 0.0000 0.0000 0.0000 -27.8141 16.1725 -17.0114 6.4049 14.8096 46.5861 1.5503 -12.3811 30.8375 2.7587 10.2937 29.9332 0.0000 0.0000 0.0000 14.2179 19.7421 -27.0495 -4.2124 -12.4378 37.2989 0.1882 -8.5062 -7.0456 -1.1894 -6.9208 19.4811 2.4805 -5.8876 9.5813 4.4761 -7.7618 5.6393 3.9180 -3.9719 0.8559 11.5506 12.4684 -1.3117 -22.1910 19.9454 16.3371 -7.4198 8.8845 8.8053 0.0000 -0.0000 0.0000 -75.9926 -8.5591 32.1809 36.7635 -46.0311 -16.0696 -0.0000 -0.0000 12.9122 -0.2729 3.7036 -0.0176 -7.1250 0.0000 -0.0000 -21.5828 33.0509 6.7373 0.0000 -0.0000 0.0000 59.9674 -20.4552 -28.2100 -12.7839 20.9698 -2.3754 0.0000 0.0000 5.1487 -16.2413 24.1688 -6.8015 7.1250 -0.0000 -0.0000 8.0483 -5.1367 7.3701
11.5531 17.5777 -13.9345 18.1349 -47.7655 -13.1474 0.0000 0.0000 0.0000 -27.8157 16.0798 -18.1688 7.0078 15.3384 48.9037 1.9838 -10.1202 31.8411 2.0290 8.9263 25.5650 0.0000 0.0000 0.0000 13.4124 18.8485 -27.2241 -4.4153 -12.6935 38.2316 0.1281 -7.7687 -7.6315 -1.0675 -6.5683 18.4426 1.8647 -6.0174 9.9077 4.5790 -7.9740 5.6950 4.4105 -4.1000 0.8473 11.7630 12.6634 -1.2348 -22.1503 20.1669 16.0206 -7.3960 9.0346 8.7459 -0.0000 0.0000 0.0000 -77.0024 -7.7513 31.5197 36.6467 -45.9528 -15.9856 -0.0000 -0.0000 13.2930 -2.3104 3.6507 -0.1472 -7.1250 0.0000 -0.0000 -23.1244 32.8975 7.3854 -0.0000 0.0000 0.0000 59.4567 -19.7613 -30.6749 -11.9993 19.8036 -2.1021 0.0000 0.0000 7.3957 -16.4187 23.8789 -6.8023 7.1250 -0.0000 -0.0000 7.9194 -5.4053 7.2089
11.5129 17.5355 -13.8236 19.3484 -46.9793 -14.0270 0.0000 0.0000 0.0000 -28.3396 15.5949 -19.4306 7.6138 15.8277 51.1595 2.2817 -8.5006 32.5704 0.9864 6.3217 17.7207 0.0000 0.0000 0.0000 12.1030 17.4745 -27.9044 -4.6335 -12.9588 39.2143 0.0441 -6.5376 -8.1008 -1.0187 -6.4211 18.0112 0.9923 -5.9384 9.9991 4.4379 -7.9346 5.7001 4.7450 -4.0997 0.8958 12.3660 12.6648 -1.5850 -22.0317 20.1285 16.0851 -7.4294 9.0397 8.8770 -0.0000 0.0000 0.0000 -76.6306 -7.2017 32.8605 36.5503 -45.8879 -15.9163 -0.0000 -0.0000 11.9677 4.5451 3.5559 0.2825 -7.1250 0.0000 -0.0000 -17.8124 33.1362 5.4051 -0.0000 0.0000 0.0000 59.5814 -19.1348 -34.9818 -11.1900 18.5790 -1.8360 0.0000 0.0000 11.0184 -16.6490 24.0392 -6.9455 7.1250 -0.0000 -0.0000 7.7881 -5.2098 7.1163
11.4619 17.5333 -13.7126 19.6050 -46.3925 -14.2320 0.0000 0.0000 0.0000 -28.0632 14.9920 -20.4398 8.1896 16.2570 53.2429 2.4438 -7.9331 33.1725 1.0109 6.3971 17.9410 0.0000 0.0000 0.0000 11.6362 16.3682 -28.1851 -4.8182 -13.1761 40.0311 -0.0130 -5.8555 -8.7139 -0.9503 -6.2082 17.3898 0.7219 -5.8770 9.8304 4.5111 -7.8917 5.8193 4.9361 -4.0924 1.1569 12.4645 12.5997 -1.8199 -21.7586 19.9449 15.9081 -7.3536 8.9752 8.7995 -0.0000 0.0000 0.0000 -76.2871 -6.6968 34.1830 36.4247 -45.8030 -15.8262 -0.0000 -0.0000 11.0354 -2.3374 5.2013 -0.2120 -7.1250 0.0000 -0.0000 -23.5499 34.3213 6.6539 -0.0000 0.0000 0.0000 59.7111 -18.3336 -39.7108 -10.5887 17.6551 -1.6490 0.0000 0.0000 14.6441 -16.1512 23.8609 -6.6817 7.1250 -0.0000 -0.0000 8.0835 -5.4612 7.3527
11.4042 17.5426 -13.5961 19.2634 -45.9680 -14.1443 0.0000 0.0000 0.0000 -27.3181 14.4895 -21.2107 8.7486 16.6432 55.2167 2.3734 -8.6193 33.1711 0.7447 5.5123 15.3758 0.0000 0.0000 0.0000 11.7112 15.6664 -27.9447 -4.9626 -13.3416 40.6609 -0.0531 -5.7059 -9.5293 -0.9125 -6.0866 17.0360 0.7504 -5.9287 9.4468 4.7040 -8.0082 6.1930 5.0571 -4.1707 1.7951 12.3841 12.6268 -2.1267 -21.5680 19.8844 15.5614 -7.2504 8.9563 8.6951 0.0000 0.0000 0.0000 -76.1396 -6.3287 34.6525 36.3104 -45.7255 -15.7443 -0.0000 -0.0000 11.1071 -4.1316 5.4629 -0.3940 -7.1250 0.0000 -0.0000 -24.9959 34.4496 7.0490 0.0000 0.0000 0.0000 59.7338 -17.1745 -43.3905 -10.1739 17.0111 -1.5254 0.0000 0.0000 17.0945 -15.4429 23.0620 -6.1762 7.1250 -0.0000 -0.0000 8.4744 -6.3661 7.5678
11.3540 17.5470 -13.4789 18.8198 -45.6690 -13.9554 0.0000 0.0000 0.0000 -26.6206 14.2187 -22.0709 9.2427 16.9614 56.9256 1.9325 -10.5702 31.8414 0.2365 3.1298 8.6405 0.0000 0.0000 0.0000 11.8701 15.1526 -27.5488 -5.0163 -13.4022 40.8932 -0.0827 -5.6186 -10.0978 -0.9133 -6.0893 17.0436 0.5353 -5.9452 10.0284 5.1549 -8.0092 5.8668 5.7387 -4.1813 1.2370 12.6988 12.5624 -2.0136 -21.7074 19.8667 15.8657 -7.3694 8.9511 8.8247 -0.0000 0.0000 0.0000 -76.3603 -5.1547 35.1165 36.1788 -45.6357 -15.6502 -0.0000 -0.0000 12.0120 -1.5684 5.3058 -0.1451 -7.1250 0.0000 -0.0000 -22.9851 34.4630 6.3837 -0.0000 0.0000 0.0000 59.2651 -17.0030 -45.3835 -9.9196 16.6138 -1.4519 0.0000 0.0000 18.1530 -14.8972 22.2195 -5.7446 7.1250 -0.0000 -0.0000 8.7720 -7.2871 7.6814
11.3058 17.5544 -13.3610 18.4910 -45.5748 -13.7854 0.0000 0.0000 0.0000 -26.0026 14.0151 -22.9610 9.6796 17.2257 58.4121 1.2297 -12.6339 28.9366 0.1534 2.5238 6.9557 0.0000 0.0000 0.0000 11.9911 14.7708 -27.2100 -5.0462 -13.4356 41.0217 -0.1222 -5.3288 -10.6135 -0.9097 -6.0778 17.0103 0.5602 -5.8834 10.2639 5.4068 -7.9087 5.7191 6.0212 -4.1320 0.9799 12.9429 12.4377 -2.0390 -21.7468 19.7066 15.9946 -7.4515 8.8809 8.8718 0.0000 -0.0000 0.0000 -76.0932 -4.3984 35.8328 35.9351 -45.4684 -15.4762 -0.0000 -0.0000 12.9376 2.5295 5.3610 0.2365 -7.1250 0.0000 -0.0000 -19.7970 34.7483 5.2476 0.0000 -0.0000 0.0000 59.2885 -16.6692 -47.2705 -9.8233 16.4627 -1.4245 0.0000 0.0000 18.6770 -14.6427 21.2669 -5.4137 7.1250 -0.0000 -0.0000 8.8900 -8.2795 7.6118
11.2494 17.6052 -13.2368 18.6419 -45.6381 -13.9772 0.0000 0.0000 0.0000 -25.6412 13.7751 -23.5506 9.9920 17.4053 59.4616 0.4942 -14.1964 24.9163 0.0086 0.5981 1.6435 0.0000 0.0000 0.0000 11.8271 14.4777 -26.6623 -5.0603 -13.4513 41.0824 -0.1667 -4.9739 -11.1317 -0.8969 -6.0360 16.8890 0.5906 -5.8420 10.1652 5.3972 -7.8555 5.7223 5.9781 -4.1045 1.0255 12.8912 12.4240 -1.9801 -21.5068 19.6446 15.9770 -7.3692 8.8697 8.8063 -0.0000 0.0000 0.0000 -75.7895 -3.7010 36.1609 35.6621 -45.2792 -15.2819 -0.0000 -0.0000 13.9062 4.4702 5.0713 0.3959 -7.1250 0.0000 -0.0000 -18.1938 34.5778 4.8618 -0.0000 0.0000 0.0000 59.5147 -16.0630 -48.4787 -9.9127 16.6028 -1.4499 0.0000 0.0000 18.3763 -14.5188 19.5511 -4.9530 7.1250 -0.0000 -0.0000 8.9072 -10.0262 7.3117
11.2026 17.6351 -13.1176 19.3124 -45.9184 -14.4288 0.0000 0.0000 0.0000 -25.6709 13.7100 -24.3574 10.2364 17.5406 60.2755 -0.1548 -15.4245 20.2238 0.0683 -1.6866 -4.6402 0.0000 0.0000 0.0000 11.2969 14.8163 -26.2357 -5.0926 -13.4874 41.2214 -0.1743 -5.1014 -11.3944 -0.7774 -5.6296 15.7133 0.0200 -5.6214 10.1522 5.4576 -7.6066 5.6200 6.3429 -3.9946 0.9833 12.8337 12.4314 -1.5196 -21.3343 19.6211 15.7766 -7.3267 8.9094 8.6195 0.0000 -0.0000 0.0000 -75.6741 -3.2600 36.4675 35.2663 -45.0013 -15.0013 -0.0000 -0.0000 14.8064 4.1678 5.3084 0.3863 -7.1250 0.0000 -0.0000 -18.4871 34.7875 4.8482 0.0000 -0.0000 0.0000 59.5069 -15.6633 -48.4250 -10.0548 16.8253 -1.4908 0.0000 0.0000 16.9496 -14.7797 17.8327 -4.6192 7.1250 -0.0000 -0.0000 8.6906 -11.7377 6.8218
